<svg width="12" height="10" viewBox="0 0 12 10" fill="none" xmlns="http://www.w3.org/2000/svg">
<g clip-path="url(#clip0_5_105)">
<path d="M7.20677 0.967669L8.00525 2.44256L9.62122 2.229C11.0796 2.03617 11.7311 3.96791 10.4436 4.66873C11.7311 5.36954 11.0796 7.30128 9.62122 7.10846L8.00525 6.89489L7.20677 8.36979C6.50818 9.66015 4.62559 9.66015 3.927 8.36979L3.12851 6.89489L1.51255 7.10846C0.0541674 7.30128 -0.597284 5.36954 0.690142 4.66873C-0.597284 3.9686 0.0541674 2.03686 1.51255 2.22969L3.12851 2.44325L3.927 0.96836C4.62559 -0.322 6.50818 -0.322691 7.20677 0.967669Z" fill="white"/>
<path d="M5.56689 5.64733C6.59186 5.64733 7.42276 5.20949 7.42276 4.66937C7.42276 4.12926 6.59186 3.69141 5.56689 3.69141C4.54193 3.69141 3.71103 4.12926 3.71103 4.66937C3.71103 5.20949 4.54193 5.64733 5.56689 5.64733Z" fill="#517954"/>
</g>
<defs>
<clipPath id="clip0_5_105">
<rect width="11.1338" height="9.338" fill="white"/>
</clipPath>
</defs>
</svg>
