<svg width="132" height="68" viewBox="0 0 132 68" fill="none" xmlns="http://www.w3.org/2000/svg">
<path d="M12.1504 0.00740942C12.2293 0.0326169 12.3159 0.0974008 12.4199 0.197839C14.0072 1.78156 15.3364 3.29392 16.4102 4.72323C17.4838 6.15604 18.2273 7.40925 18.6367 8.483C20.7844 5.62065 22.9712 3.52278 25.1943 2.19393C27.4211 0.865063 29.7851 0.200769 32.292 0.200769C36.1778 0.200861 39.044 1.38967 40.8828 3.76718C42.7253 6.14477 43.6445 9.84097 43.6445 14.8512V30.858C44.0359 30.5743 44.4386 30.2949 44.8623 30.0328C46.6509 28.9087 48.6079 28.0534 50.7305 27.4644C52.8495 26.8754 55.0621 26.5807 57.3643 26.5807C57.9891 26.5807 58.596 26.5988 59.1885 26.6275L52.8135 10.6881C52.3538 9.51028 51.9305 8.54056 51.5498 7.77206C51.1691 7.00347 50.8199 6.36409 50.5146 5.85409C50.0047 4.98502 49.4914 4.39568 48.9814 4.09042C48.4715 3.7852 47.5234 3.63049 46.1445 3.63046V0.104089H51.7432C53.9951 0.154371 55.5899 0.179284 56.5381 0.179284H64.4785C66.5221 0.129003 68.0167 0.104089 68.9648 0.104089H71.3027V3.63046C69.3599 3.63046 67.9412 3.83533 67.0469 4.24471C66.149 4.65415 65.7041 5.31942 65.7041 6.23885C65.7041 6.75215 65.7644 7.27271 65.8936 7.81112C66.0193 8.34985 66.2387 9.02545 66.5439 9.84432L72.7578 26.566L78.127 11.8375C78.5364 10.7134 78.8312 9.79405 79.0107 9.07577C79.1903 8.36115 79.2793 7.69669 79.2793 7.0826C79.2793 5.90833 78.9206 5.03906 78.2061 4.47518C77.4878 3.91135 76.3635 3.6305 74.8301 3.63046V0.104089H76.9023C77.6673 0.104095 78.7664 0.129009 80.1992 0.179284H86.7178C87.8419 0.129004 88.6861 0.104089 89.25 0.104089H90.7832V3.63046C89.3538 3.63051 88.1002 4.32101 87.0264 5.7037C85.9526 7.08648 84.6988 9.43855 83.2695 12.7603L80.6299 18.9019C84.462 16.4526 88.7791 15.2213 93.4336 15.2213C98.088 15.2213 101.68 16.1795 104.212 18.0973C106.74 20.0151 108.009 22.6876 108.009 26.1139C108.009 28.2616 107.344 29.8099 106.015 30.7545C104.686 31.7024 102.614 32.1724 99.8018 32.1724C98.832 32.1724 97.7684 32.1585 96.6191 32.1334C95.4698 32.1082 93.7174 32.0684 91.3652 32.0182C88.8619 31.9176 86.969 31.8529 85.6904 31.8277C84.4083 31.8026 83.234 31.7887 82.1602 31.7887V32.1724C82.1602 36.0584 83.3093 39.1655 85.6113 41.4928C87.9135 43.8201 90.927 44.9839 94.6621 44.984C97.424 44.984 99.8378 44.3585 101.91 43.1051C103.982 41.8516 105.886 39.8731 107.624 37.1617L109.233 37.776C108.393 42.3442 106.798 46.0795 104.464 48.9849C104.518 49.0029 104.575 49.0207 104.629 49.0387C106.723 49.7677 108.285 50.8349 110.171 51.9303C113.576 53.9127 117.278 55.8092 121.211 55.7984C123.075 55.7948 124.846 55.6188 126.652 55.1627L126.648 55.1656C127.553 54.9358 128.315 54.6591 129.307 54.1168C129.759 53.8688 130.833 53.2482 131.677 52.6666C131.257 53.4423 130.847 54.2216 130.416 54.9937C129.999 55.7443 129.561 56.4806 129.076 57.1881C125.934 61.7672 119.8 64.9092 114.215 63.7672C112.081 63.3326 110.217 62.141 108.536 60.8014C105.505 58.3807 102.854 54.9003 98.9756 53.8336C98.8607 53.8013 98.7496 53.7721 98.6348 53.7398C95.8154 55.1657 92.5214 55.8805 88.7539 55.8805C87.2348 55.8804 85.798 55.773 84.4404 55.5611C83.5318 56.2722 82.4729 57.2386 81.2734 58.5601C79.1941 61.2177 77.1573 63.2574 75.1641 64.6724C72.9661 66.2312 70.8683 67.0103 68.875 67.0103C66.422 67.0103 64.5902 66.3968 63.3906 65.1685C62.1875 63.9402 61.5879 62.0221 61.5879 59.4146V58.1861C59.5407 61.5083 57.4326 63.8507 55.2598 65.2047C53.0833 66.5587 50.4895 67.2369 47.4727 67.2369C44.6607 67.2368 42.3837 66.4974 40.6455 65.0142C38.9072 63.531 38.0381 61.559 38.0381 59.106C38.0381 55.7804 39.417 53.0577 42.1787 50.9351C44.9406 48.8125 49.7971 46.6507 56.7539 44.4527L61.8926 42.8394V42.4557C61.8926 37.4957 61.4978 34.184 60.7041 32.5211C59.9104 30.862 58.3375 30.029 55.9854 30.0289C54.1431 30.0289 52.814 30.6536 51.9951 31.9068C51.1762 33.1603 50.7666 35.1395 50.7666 37.8512V39.1549C50.7666 40.5375 49.9583 41.7368 48.3496 42.7603C46.737 43.7839 44.9337 44.2945 42.9404 44.2945C41.5613 44.2945 40.3725 43.9137 39.374 43.1451C38.3757 42.3766 37.8761 41.4572 37.876 40.3834C37.876 40.2433 37.8873 40.1065 37.8945 39.9664C36.7274 39.9413 35.9012 39.9273 35.4307 39.9273H33.3584C32.9993 39.9273 32.3598 39.9522 31.4404 40.0025C29.9034 40.0025 28.7792 40.0165 28.0645 40.0416C27.3497 40.0703 26.7605 40.0816 26.3008 40.0816V36.4C27.8344 36.4 28.7934 36.3602 29.1777 36.2848C29.562 36.2093 29.8568 36.0944 30.0615 35.94C30.3163 35.7389 30.4926 35.3905 30.5967 34.9058C30.7008 34.421 30.751 33.5376 30.751 32.2594L30.6758 19.2974C30.6758 15.1564 30.1652 12.3044 29.1416 10.7457C28.118 9.18704 26.3797 8.4078 23.9268 8.4078C23.0576 8.40781 22.2635 8.49776 21.5488 8.67733C20.8342 8.85695 19.9399 9.23045 18.8662 9.79061V36.4068H23.0859V40.0885H20.6338C19.4594 40.0885 17.4367 40.0636 14.5742 40.0133C12.7359 39.963 11.5078 39.9381 10.8936 39.9381H8.74512C8.33563 39.9381 7.56718 39.963 6.44336 40.0133C4.75534 40.0636 3.53031 40.0885 2.76172 40.0885H0.919922V36.4068C3.01711 36.4068 4.38517 36.1269 5.02441 35.5631C5.66366 35.0028 5.98336 33.8287 5.9834 32.0367V13.7808C5.41953 13.1667 4.51418 12.2474 3.26074 11.0191C2.00729 9.79082 0.973168 8.82044 0.154297 8.10214C0.050284 8.05187 0 7.98708 0 7.91171C0.000143758 7.83642 0.0502913 7.77149 0.154297 7.72128L11.8809 0.121667C11.9849 0.0212317 12.075 -0.017717 12.1504 0.00740942ZM51.0234 54.4859C50.3249 53.1956 48.4427 53.1956 47.7441 54.4859L46.9453 55.9605L45.3291 55.7467C43.8709 55.5541 43.2195 57.486 44.5068 58.1861C43.2197 58.887 43.871 60.8182 45.3291 60.6256L46.9453 60.4117L47.7441 61.8873C48.4428 63.1771 50.3248 63.1772 51.0234 61.8873L51.8223 60.4117L53.4385 60.6256C54.8964 60.8179 55.5476 58.887 54.2607 58.1861C55.5478 57.4853 54.8964 55.5534 53.4385 55.7457L51.8223 55.9596L51.0234 54.4849V54.4859ZM74.291 50.6656C74.2479 51.5096 74.2194 52.1817 74.2051 52.6666C74.1764 53.4853 74.165 54.1787 74.165 54.7389C74.1651 56.222 74.3162 57.2563 74.625 57.8453C74.9303 58.4343 75.4694 58.7291 76.2344 58.7291C76.7944 58.729 77.3832 58.524 77.9971 58.1148C78.3239 57.8958 78.6834 57.6048 79.082 57.2457C79.082 57.2423 79.0759 57.2382 79.0752 57.2379C79.269 57.0226 79.4521 56.7966 79.6279 56.567H79.6318C80.088 55.9708 80.4903 55.3345 80.9033 54.7096C78.5114 53.9015 76.4314 52.6842 74.6787 51.0465C74.5459 50.9208 74.4203 50.7949 74.291 50.6656ZM89.4434 19.0601C87.4502 19.0602 85.8266 19.9294 84.5732 21.6676L84.5703 21.6637C83.3169 23.402 82.5626 25.8844 82.3076 29.106C85.2738 29.0558 87.3962 28.991 88.6748 28.9156C89.9533 28.8402 91.0024 28.7253 91.8213 28.5709C92.1769 28.4703 92.4965 28.3296 92.7803 28.15C93.0603 27.9704 93.3051 27.7516 93.5098 27.4967C93.7144 27.1914 93.8795 26.8318 94.0088 26.4224C94.138 26.0133 94.2021 25.6041 94.2021 25.1949C94.2021 23.3058 93.7786 21.8076 92.9346 20.7086C92.0906 19.6097 90.9266 19.0601 89.4434 19.0601ZM109.822 1.37167C111.816 1.3717 113.424 1.95057 114.642 3.10702C115.877 4.24544 116.495 5.65275 116.495 7.5201C116.495 9.38752 115.863 10.9215 114.596 12.1246C113.332 13.3277 111.668 13.9283 109.61 13.9283V13.9312C107.441 13.9312 105.757 13.3998 104.554 12.3404C103.365 11.2809 102.771 9.7542 102.771 7.90096C102.772 6.04786 103.437 4.49646 104.766 3.24667C106.094 1.99693 107.829 1.37167 109.822 1.37167ZM120.64 1.31796C120.668 1.31796 120.701 1.33251 120.733 1.36483C121.225 1.85678 121.635 2.32354 121.969 2.76522C122.303 3.20698 122.532 3.59527 122.658 3.92928C123.323 3.04217 123.998 2.39505 124.677 1.98202C125.373 1.56907 126.11 1.36483 126.886 1.36483C128.089 1.36488 128.972 1.73861 129.543 2.48202C130.114 3.21111 130.398 4.34949 130.398 5.90096V11.2662C130.398 11.8693 130.47 12.2396 130.613 12.3834H130.603C130.761 12.5091 131.117 12.5738 131.67 12.5738V13.7125H130.958C130.61 13.7125 129.992 13.7015 129.105 13.6871C128.473 13.6691 128.052 13.6617 127.848 13.6617H127.209C127.098 13.6617 126.9 13.6727 126.616 13.6871C126.142 13.6871 125.794 13.6981 125.571 13.7125H125.025V12.5738C125.503 12.5738 125.794 12.5628 125.905 12.5484C126.031 12.5162 126.124 12.4768 126.188 12.4303C126.267 12.3657 126.321 12.2651 126.354 12.1217C126.386 11.9636 126.4 11.6867 126.4 11.2916L126.376 7.27987C126.376 5.99794 126.217 5.11826 125.901 4.64413C125.585 4.15214 125.05 3.90785 124.289 3.9078C124.02 3.9078 123.775 3.93597 123.553 4.00057C123.334 4.05086 123.057 4.16216 122.723 4.33456V12.5699H124.03V13.7086H123.272C122.91 13.7086 122.285 13.6976 121.397 13.6832C120.83 13.6652 120.449 13.6588 120.259 13.6588H119.595C119.469 13.6588 119.232 13.6688 118.884 13.6832C118.363 13.7011 117.982 13.7086 117.745 13.7086H117.174V12.5699C117.82 12.5699 118.24 12.4804 118.431 12.3082C118.635 12.1358 118.74 11.7694 118.74 11.2164V5.56698C118.564 5.37663 118.28 5.09221 117.885 4.71151C117.508 4.331 117.188 4.03274 116.937 3.81014C116.905 3.79596 116.891 3.77846 116.891 3.76425C116.891 3.73204 116.904 3.70637 116.937 3.69198L120.568 1.34335C120.601 1.31114 120.625 1.30373 120.64 1.31796ZM109.657 2.46053C108.835 2.46053 108.278 2.83349 107.994 3.57675C107.725 4.30583 107.592 5.61032 107.592 7.54257C107.592 9.47439 107.742 10.8355 108.044 11.6256C108.346 12.4156 108.906 12.811 109.682 12.8111C110.457 12.8111 110.979 12.4338 111.248 11.6724C111.532 10.9146 111.676 9.61417 111.676 7.77889C111.676 5.83242 111.524 4.4606 111.223 3.6705C110.939 2.86251 110.418 2.46065 109.657 2.46053Z" fill="#639A68"/>
<path d="M49.3837 59.1644C50.4087 59.1644 51.2396 58.7266 51.2396 58.1865C51.2396 57.6463 50.4087 57.2085 49.3837 57.2085C48.3587 57.2085 47.5278 57.6463 47.5278 58.1865C47.5278 58.7266 48.3587 59.1644 49.3837 59.1644Z" fill="#639A68"/>
</svg>
